<svg width="20" height="20" viewBox="0 0 20 20" fill="none" xmlns="http://www.w3.org/2000/svg">
<g clip-path="url(#clip0)">
<path fill-rule="evenodd" clip-rule="evenodd" d="M17.5 1.25H2.5C2.16848 1.25 1.85054 1.3817 1.61612 1.61612C1.3817 1.85054 1.25 2.16848 1.25 2.5V16.9825L3.75 14.4825C4.21873 14.0136 4.85451 13.7501 5.5175 13.75H17.5C17.8315 13.75 18.1495 13.6183 18.3839 13.3839C18.6183 13.1495 18.75 12.8315 18.75 12.5V2.5C18.75 2.16848 18.6183 1.85054 18.3839 1.61612C18.1495 1.3817 17.8315 1.25 17.5 1.25ZM2.5 0C1.83696 0 1.20107 0.263392 0.732233 0.732233C0.263392 1.20107 0 1.83696 0 2.5L0 18.4913C2.62686e-05 18.6149 0.0367407 18.7358 0.105497 18.8386C0.174252 18.9414 0.271959 19.0215 0.386249 19.0687C0.50054 19.116 0.626276 19.1282 0.747545 19.104C0.868814 19.0797 0.980163 19.0201 1.0675 18.9325L4.63375 15.3663C4.86812 15.1318 5.18601 15.0001 5.5175 15H17.5C18.163 15 18.7989 14.7366 19.2678 14.2678C19.7366 13.7989 20 13.163 20 12.5V2.5C20 1.83696 19.7366 1.20107 19.2678 0.732233C18.7989 0.263392 18.163 0 17.5 0L2.5 0Z" fill="#8540F5"/>
<path fill-rule="evenodd" clip-rule="evenodd" d="M3.75 4.375C3.75 4.20924 3.81585 4.05027 3.93306 3.93306C4.05027 3.81585 4.20924 3.75 4.375 3.75H15.625C15.7908 3.75 15.9497 3.81585 16.0669 3.93306C16.1842 4.05027 16.25 4.20924 16.25 4.375C16.25 4.54076 16.1842 4.69973 16.0669 4.81694C15.9497 4.93415 15.7908 5 15.625 5H4.375C4.20924 5 4.05027 4.93415 3.93306 4.81694C3.81585 4.69973 3.75 4.54076 3.75 4.375ZM3.75 7.5C3.75 7.33424 3.81585 7.17527 3.93306 7.05806C4.05027 6.94085 4.20924 6.875 4.375 6.875H15.625C15.7908 6.875 15.9497 6.94085 16.0669 7.05806C16.1842 7.17527 16.25 7.33424 16.25 7.5C16.25 7.66576 16.1842 7.82473 16.0669 7.94194C15.9497 8.05915 15.7908 8.125 15.625 8.125H4.375C4.20924 8.125 4.05027 8.05915 3.93306 7.94194C3.81585 7.82473 3.75 7.66576 3.75 7.5ZM3.75 10.625C3.75 10.4592 3.81585 10.3003 3.93306 10.1831C4.05027 10.0658 4.20924 10 4.375 10H10.625C10.7908 10 10.9497 10.0658 11.0669 10.1831C11.1842 10.3003 11.25 10.4592 11.25 10.625C11.25 10.7908 11.1842 10.9497 11.0669 11.0669C10.9497 11.1842 10.7908 11.25 10.625 11.25H4.375C4.20924 11.25 4.05027 11.1842 3.93306 11.0669C3.81585 10.9497 3.75 10.7908 3.75 10.625Z" fill="#8540F5"/>
</g>
<defs>
<clipPath id="clip0">
<rect width="20" height="20" fill="white"/>
</clipPath>
</defs>
</svg>
