<svg width="20" height="20" viewBox="0 0 20 20" fill="none" xmlns="http://www.w3.org/2000/svg">
<g clip-path="url(#clip0)">
<path fill-rule="evenodd" clip-rule="evenodd" d="M8.695 2.18126C8.77625 1.01251 9.885 0.108762 11.08 0.406262L11.4063 0.488762C11.985 0.633762 12.4988 1.05876 12.6713 1.69501C12.9463 2.71501 13.3375 4.83376 12.7488 7.33251C12.9328 7.30708 13.1175 7.28583 13.3025 7.26876C14.1938 7.18751 15.3888 7.17876 16.4475 7.53126C17.095 7.74751 17.69 8.38251 17.9475 9.12251C18.1775 9.78751 18.1475 10.575 17.655 11.2888C17.7275 11.4375 17.7838 11.5913 17.8275 11.7425C17.9238 12.08 17.9688 12.4513 17.9688 12.8125C17.9688 13.1738 17.9238 13.545 17.8275 13.8825C17.7788 14.0513 17.715 14.2238 17.6275 14.3875C17.8388 14.8713 17.7613 15.4113 17.6238 15.8225C17.483 16.2286 17.2769 16.609 17.0138 16.9488C17.0813 17.1388 17.1088 17.3388 17.1088 17.53C17.1088 17.9113 16.9975 18.3113 16.7925 18.67C16.375 19.4025 15.5463 20 14.375 20V18.75C15.0788 18.75 15.5013 18.41 15.7075 18.05C15.8012 17.8923 15.8533 17.7134 15.8588 17.53C15.8588 17.38 15.815 17.3238 15.8088 17.3175L15.3663 16.875L15.8075 16.4325C16.06 16.1813 16.3163 15.7938 16.4388 15.4275C16.5688 15.0375 16.4925 14.8763 16.4325 14.8175L15.9913 14.375L16.4325 13.9325C16.4863 13.88 16.5638 13.7575 16.625 13.5388C16.685 13.33 16.7188 13.0763 16.7188 12.8125C16.7188 12.5488 16.685 12.295 16.625 12.0863C16.5625 11.8688 16.4863 11.745 16.4325 11.6925L15.9913 11.25L16.4325 10.8075C16.8738 10.3675 16.8988 9.91626 16.7663 9.53251C16.6138 9.09501 16.2713 8.79126 16.0525 8.71751C15.2363 8.44626 14.2438 8.43751 13.415 8.51251C12.9552 8.55533 12.4985 8.62672 12.0475 8.72626L12.03 8.73001L12.0263 8.73126C11.9177 8.75823 11.8039 8.75556 11.6967 8.72354C11.5895 8.69151 11.4928 8.6313 11.4168 8.54918C11.3409 8.46707 11.2883 8.36607 11.2647 8.25671C11.2411 8.14736 11.2472 8.03367 11.2825 7.92751C11.9115 6.01706 11.9745 3.96543 11.4637 2.02001C11.4263 1.88126 11.3038 1.75126 11.1038 1.70126L10.7763 1.62001C10.3938 1.52376 9.97375 1.81501 9.9425 2.26751C9.84875 3.62001 9.64375 4.95501 9.34 5.83001C9.1225 6.45751 8.58625 7.41501 7.7925 8.30126C6.99625 9.19126 5.89375 10.0638 4.525 10.4363C4.0325 10.5713 3.75 10.9313 3.75 11.2488V16.2513C3.75 16.5763 4.025 16.895 4.44125 16.9388C6.0575 17.11 6.86125 17.6013 7.555 18.0238L7.605 18.055C7.9425 18.26 8.22375 18.425 8.575 18.5463C8.92125 18.665 9.3625 18.75 10 18.75H14.375V20H10C9.24375 20 8.6625 19.8988 8.1675 19.7275C7.74187 19.5721 7.33513 19.3691 6.955 19.1225L6.895 19.085C6.265 18.7013 5.64625 18.3238 4.31 18.1825C3.3525 18.08 2.5 17.3075 2.5 16.25V11.25C2.5 10.1875 3.35625 9.46001 4.19625 9.23126C5.2575 8.94126 6.16375 8.24751 6.86125 7.46876C7.56125 6.68501 8.00375 5.86876 8.16 5.42001C8.40875 4.70126 8.605 3.49626 8.695 2.18251V2.18126Z" fill="#8540F5"/>
</g>
<defs>
<clipPath id="clip0">
<rect width="20" height="20" fill="white"/>
</clipPath>
</defs>
</svg>
