<svg width="88" height="88" viewBox="0 0 88 88" fill="none" xmlns="http://www.w3.org/2000/svg">
<g filter="url(#filter0_d)">
<path d="M69 83H19C10.715 83 4 76.285 4 68V18C4 9.715 10.715 3 19 3H69C77.285 3 84 9.715 84 18V68C84 76.285 77.285 83 69 83Z" fill="#E0CFFC"/>
<path d="M55.6675 35.9V46.85C54.85 47.4675 53.7675 47.6325 52.8 47.3L52.4825 47.1825C53.465 45.25 53.1 42.8825 51.55 41.3L45.9325 35.6825L50.4 34.115L55.6675 35.9Z" fill="#8540F5"/>
<path d="M42.1175 43.365L48 49.15V49.1675C47.85 49.7 47.5675 50.185 47.1675 50.585C46.45 51.285 45.5 51.635 44.5675 51.585L38.3 45.3175C38.15 45.45 38.0825 45.635 38.0825 45.8175C38.0825 46.035 38.1825 46.2675 38.4 46.4L44.35 52.2325C44.1825 52.6325 43.95 53 43.6325 53.315C42.95 53.9975 42.05 54.3325 41.15 54.3325C40.2825 54.3325 39.4175 54.015 38.75 53.365L35.0825 50.0475C34.2825 49.315 33.35 48.7975 32.315 48.48C32.3325 48.43 32.3325 48.38 32.3325 48.33V34.33L36.615 32.5625C37.8475 32.045 39.2325 32.145 40.365 32.7625L40.1 32.9C38.6675 33.6175 37.65 34.9825 37.3675 36.6175C37.1175 38.2 37.65 39.835 38.785 40.985C39.6175 41.8175 40.735 42.335 41.9175 42.435C41.835 42.5525 41.8 42.6675 41.8 42.785C41.8 43.015 41.9 43.2325 42.1175 43.365Z" fill="#8540F5"/>
<path d="M50.9001 46.6499C50.7676 46.9174 50.6001 47.1499 50.3826 47.3674C49.7326 48.0174 48.9651 48.385 48.1651 48.45L42.1476 42.4499H42.3476C43.1476 42.4499 43.9476 42.25 44.6476 41.9L45.1801 41.6174L48.0476 40.1674L50.3651 42.4849C50.3651 42.4849 50.3651 42.4849 50.3826 42.5024C51.4826 43.6149 51.6676 45.3324 50.9001 46.6499Z" fill="#8540F5"/>
<path d="M29.4175 49.5825H25.25C24.56 49.5825 24 49.0225 24 48.3325V34.165C24 33.475 24.56 32.915 25.25 32.915H29.4175C30.1075 32.915 30.6675 33.475 30.6675 34.165V48.3325C30.6675 49.0225 30.1075 49.5825 29.4175 49.5825Z" fill="#C29FFA"/>
<path d="M62.75 49.5825H58.5825C57.8925 49.5825 57.3325 49.0225 57.3325 48.3325V34.165C57.3325 33.475 57.8925 32.915 58.5825 32.915H62.75C63.44 32.915 64 33.475 64 34.165V48.3325C64 49.0225 63.44 49.5825 62.75 49.5825Z" fill="#C29FFA"/>
<path d="M53.9 33.0825C53.8825 33.0825 53.8675 33.065 53.8325 33.065L50.0175 31.5C48.835 31.0175 47.5 31.05 46.35 31.6325L41.8 33.915L40.85 34.3825C39.8825 34.865 39.2 35.8 39.0175 36.865C38.85 37.9325 39.2 39.0325 39.9675 39.7975C40.6175 40.4475 41.485 40.78 42.35 40.78C42.8675 40.78 43.4 40.6625 43.8825 40.4125L44.4325 40.13L46.815 38.93L53.4475 35.5975L55.665 36.515V34.165C55.665 34.0475 55.665 33.9325 55.6975 33.8325L53.9 33.0825Z" fill="#8540F5"/>
</g>
<defs>
<filter id="filter0_d" x="0" y="0" width="88" height="88" filterUnits="userSpaceOnUse" color-interpolation-filters="sRGB">
<feFlood flood-opacity="0" result="BackgroundImageFix"/>
<feColorMatrix in="SourceAlpha" type="matrix" values="0 0 0 0 0 0 0 0 0 0 0 0 0 0 0 0 0 0 127 0"/>
<feOffset dy="1"/>
<feGaussianBlur stdDeviation="2"/>
<feColorMatrix type="matrix" values="0 0 0 0 0 0 0 0 0 0 0 0 0 0 0 0 0 0 0.1 0"/>
<feBlend mode="normal" in2="BackgroundImageFix" result="effect1_dropShadow"/>
<feBlend mode="normal" in="SourceGraphic" in2="effect1_dropShadow" result="shape"/>
</filter>
</defs>
</svg>
